<svg xmlns="http://www.w3.org/2000/svg" viewBox="0 0 32 32" fill="none">
  <rect width="32" height="32" rx="6" fill="#135bec"/>
  <path fill-rule="evenodd" clip-rule="evenodd" d="M6 18.803v4.447c0 .414.336.75.75.75h1.614a.75.75 0 0 0 .74-.627L9.5 21h13l.395 2.373a.75.75 0 0 0 .74.627h1.615a.75.75 0 0 0 .75-.75v-4.447c-.652.978-1 2.127-1 3.303l-.78-1.17-.178-.33h.994a.75.75 0 0 0 .671-.415l.25-.5A.75.75 0 0 0 25.287 16H23.6l-.31-1.546a2.5 2.5 0 0 0-1.885-1.944C19.943 12.17 18.141 12 16 12c-2.142 0-3.943.17-5.405.51a2.5 2.5 0 0 0-1.886 1.944L8.399 16H6.714a.75.75 0 0 0-.67 1.085l.25.5a.75.75 0 0 0 .67.415h.995l-.178.33-.78 1.17c-.652.978-1 2.127-1 3.303zm15.961-3.799c.157.315.271.65.34.997H9.699l.632-3.157a.5.5 0 0 1 .377-.39C12.346 12.157 14 12 16 12c2 0 3.654.156 4.952.458a.5.5 0 0 1 .378.389l.631 3.157zM9.5 20a1.5 1.5 0 1 0 0-3 1.5 1.5 0 0 0 0 3zM22.5 18.5a1.5 1.5 0 1 1-3 0 1.5 1.5 0 0 1 3 0z" fill="#fff"/>
</svg>
